# File created by Blade
# Date/Time:  Mon Sep 29 17:58:21 2014
# Frame Rate: 120.000 fps
#------------------------------------------------------
:FULLY-SPECIFIED
:DEGREES
1058
root -0.643661 10.610060 -8.842924 26.715568 2.023613 2.204765
Spine 46.151827 6.504829 -2.944650
Head -56.261244 -7.046817 3.367301
LeftShoulder 5.962521 -37.679054 32.380080
LeftArm 77.279763 39.492002 4.751881
LeftForeArm 36.902783 -0.000000 44.728774
LeftHand -35.815059 -0.000000 50.631749
LeftHandThumb1 -26.253704 0.000000 33.147579
RightShoulder -11.106530 53.213121 -47.740364
RightArm 53.902360 -52.800790 13.152015
RightForeArm -19.280114 -0.000000 69.874154
RightHand -0.246556 -0.000000 2.598198
RightHandThumb1 -24.326973 -0.000000 -32.862282
LeftUpLeg -122.234643 45.355787 -1.135139
LeftLeg 131.505547 -0.000000 -0.000000
LeftFoot -28.146262 -14.177771 -20.020694
LeftToeBase 8.730660 -0.000000 -0.000000
RightUpLeg -122.248969 -34.650720 -5.850782
RightLeg 136.185736 -0.000000 -0.000000
RightFoot -33.555071 -2.162486 17.611048
RightToeBase 4.398828 -0.000000 -0.000000
1059
root -0.649972 10.547770 -8.871240 26.362415 1.989279 2.248864
Spine 46.004805 6.437905 -2.985116
Head -56.374143 -7.036042 3.301445
LeftShoulder 5.536404 -36.607726 32.692254
LeftArm 77.264272 37.619308 4.826160
LeftForeArm 37.047314 -0.000000 44.393841
LeftHand -35.468187 -0.000000 50.407065
LeftHandThumb1 -26.253704 0.000000 33.147579
RightShoulder -11.227996 52.577902 -48.090800
RightArm 52.906458 -51.342500 13.488971
RightForeArm -18.176231 -0.000000 70.205588
RightHand 0.139960 -0.000000 2.876022
RightHandThumb1 -24.326973 -0.000000 -32.862282
LeftUpLeg -121.924526 45.350440 -0.742433
LeftLeg 131.598384 -0.000000 -0.000000
LeftFoot -28.133268 -14.123448 -20.032634
LeftToeBase 8.874191 -0.000000 -0.000000
RightUpLeg -122.189165 -34.643458 -6.042192
RightLeg 136.304165 -0.000000 -0.000000
RightFoot -33.452725 -2.229128 17.494167
RightToeBase 4.372395 -0.000000 -0.000000
1060
root -0.655452 10.483042 -8.899729 26.001931 1.928362 2.294917
Spine 45.861448 6.406113 -3.049838
Head -56.421066 -7.006497 3.231727
LeftShoulder 5.145730 -35.514747 33.035802
LeftArm 77.053180 35.707689 4.695824
LeftForeArm 36.931221 -0.000000 44.153679
LeftHand -35.682673 -0.000000 49.488056
LeftHandThumb1 -26.253704 0.000000 33.147579
RightShoulder -11.303134 51.915105 -48.337955
RightArm 52.063554 -49.965908 13.615566
RightForeArm -18.166595 -0.000000 70.483500
RightHand -0.088480 -0.000000 2.064891
RightHandThumb1 -24.326973 -0.000000 -32.862282
LeftUpLeg -121.640656 45.382102 -0.382332
LeftLeg 131.706895 -0.000000 -0.000000
LeftFoot -28.094446 -14.048714 -19.995202
LeftToeBase 8.979421 -0.000000 -0.000000
RightUpLeg -122.149157 -34.612230 -6.248412
RightLeg 136.426112 -0.000000 -0.000000
RightFoot -33.327465 -2.333503 17.351843
RightToeBase 4.401238 -0.000000 -0.000000
1061
root -0.662263 10.414939 -8.929152 25.633158 1.936917 2.318785
Spine 45.735313 6.286510 -3.054236
Head -56.442325 -6.983695 3.155408
LeftShoulder 4.794486 -34.443048 33.347489
LeftArm 76.773771 33.786857 4.413337
LeftForeArm 36.305760 0.000000 43.836935
LeftHand -35.736914 -0.000000 49.240861
LeftHandThumb1 -26.253704 0.000000 33.147579
RightShoulder -11.399937 51.263148 -48.624787
RightArm 51.070569 -48.511975 13.994443
RightForeArm -18.153852 -0.000000 70.633611
RightHand 0.029521 -0.000000 1.745066
RightHandThumb1 -24.326973 -0.000000 -32.862282
LeftUpLeg -121.386350 45.350000 0.022236
LeftLeg 131.811504 -0.000000 -0.000000
LeftFoot -28.038087 -13.913180 -19.948827
LeftToeBase 9.051690 -0.000000 -0.000000
RightUpLeg -122.082237 -34.629108 -6.417411
RightLeg 136.557257 -0.000000 -0.000000
RightFoot -33.238113 -2.409714 17.236201
RightToeBase 4.414733 -0.000000 -0.000000
1062
root -0.667973 10.346162 -8.951149 25.180557 1.865444 2.373324
Spine 45.720208 6.248909 -3.140858
Head -56.463184 -6.932915 3.063333
LeftShoulder 4.338359 -33.228114 33.764957
LeftArm 76.353333 31.707827 4.213791
LeftForeArm 36.870763 -0.000000 43.538293
LeftHand -34.967392 -0.000000 48.645108
LeftHandThumb1 -26.253704 0.000000 33.147579
RightShoulder -11.477110 50.564444 -48.818972
RightArm 50.069742 -46.977979 14.374199
RightForeArm -18.328364 -0.000000 70.761561
RightHand 0.113393 -0.000000 1.391129
RightHandThumb1 -24.326973 -0.000000 -32.862282
LeftUpLeg -120.997006 45.404028 0.443442
LeftLeg 131.942799 -0.000000 -0.000000
LeftFoot -27.986464 -13.809763 -19.891294
LeftToeBase 9.155981 -0.000000 -0.000000
RightUpLeg -121.917908 -34.597527 -6.722090
RightLeg 136.695763 -0.000000 -0.000000
RightFoot -33.081594 -2.349613 17.175097
RightToeBase 4.304915 -0.000000 -0.000000
1063
root -0.672964 10.269209 -8.981676 24.827819 1.862823 2.349714
Spine 45.565370 6.130768 -3.085676
Head -56.442008 -6.965300 2.899914
LeftShoulder 3.931875 -32.205909 34.143398
LeftArm 75.878863 29.849620 3.913863
LeftForeArm 37.030802 -0.000000 43.261928
LeftHand -34.706834 -0.000000 47.179898
LeftHandThumb1 -26.253704 0.000000 33.147579
RightShoulder -11.540632 49.741836 -48.972062
RightArm 49.472866 -45.466712 14.337580
RightForeArm -19.329124 -0.000000 70.677325
RightHand 0.175223 -0.000000 0.257120
RightHandThumb1 -24.326973 -0.000000 -32.862282
LeftUpLeg -120.811523 45.388411 0.858737
LeftLeg 132.098991 -0.000000 -0.000000
LeftFoot -27.976308 -13.631393 -19.848303
LeftToeBase 9.303028 -0.000000 -0.000000
RightUpLeg -121.904858 -34.598105 -6.851416
RightLeg 136.836783 -0.000000 -0.000000
RightFoot -32.992883 -2.376438 17.151596
RightToeBase 4.483696 -0.000000 -0.000000
1064
root -0.680738 10.194002 -9.001780 24.389671 1.803284 2.365018
Spine 45.524503 6.071272 -3.156351
Head -56.424523 -6.879677 2.816217
LeftShoulder 3.581271 -31.229660 34.506778
LeftArm 75.376788 28.034569 3.564843
LeftForeArm 36.927009 -0.000000 42.790019
LeftHand -34.412327 -0.000000 47.162240
LeftHandThumb1 -26.253704 0.000000 33.147579
RightShoulder -11.586610 49.080496 -49.076569
RightArm 48.571623 -43.978700 14.660410
RightForeArm -20.034079 -0.000000 70.649050
RightHand 0.138141 -0.000000 0.025974
RightHandThumb1 -24.326973 -0.000000 -32.862282
LeftUpLeg -120.472330 45.461606 1.313408
LeftLeg 132.229011 -0.000000 -0.000000
LeftFoot -27.944922 -13.503865 -19.715644
LeftToeBase 9.491976 -0.000000 -0.000000
RightUpLeg -121.795897 -34.550655 -7.079171
RightLeg 136.991819 -0.000000 -0.000000
RightFoot -32.837452 -2.511263 16.946367
RightToeBase 4.345784 -0.000000 -0.000000
1065
root -0.681172 10.115937 -9.023781 23.955817 1.756975 2.412455
Spine 45.487726 6.001380 -3.198263
Head -56.372873 -6.870046 2.681473
LeftShoulder 3.293004 -30.464416 34.842070
LeftArm 74.713239 26.368044 3.098343
LeftForeArm 36.548466 0.000000 42.703086
LeftHand -34.605504 -0.000000 46.263727
LeftHandThumb1 -26.253704 0.000000 33.147579
RightShoulder -11.662083 48.288493 -49.145067
RightArm 47.869657 -42.408386 14.779978
RightForeArm -20.609077 -0.000000 70.544876
RightHand 0.008378 -0.000000 -0.088063
RightHandThumb1 -24.326973 -0.000000 -32.862282
LeftUpLeg -120.156095 45.472003 1.731684
LeftLeg 132.391607 -0.000000 -0.000000
LeftFoot -27.964129 -13.362789 -19.701768
LeftToeBase 9.871470 -0.000000 -0.000000
RightUpLeg -121.627633 -34.540862 -7.432915
RightLeg 137.141321 -0.000000 -0.000000
RightFoot -32.739752 -2.508979 16.862116
RightToeBase 4.382924 -0.000000 -0.000000
